<svg width="153" height="32" viewBox="0 0 153 32" fill="none" xmlns="http://www.w3.org/2000/svg"><rect y="14" width="3" height="4" rx="1.5" fill="currentColor"></rect><rect x="6" y="14" width="3" height="4" rx="1.5" fill="currentColor"></rect><rect x="12" y="12" width="3" height="8" rx="1.5" fill="currentColor"></rect><rect x="18" y="12" width="3" height="8" rx="1.5" fill="currentColor"></rect><rect x="24" y="12" width="3" height="8" rx="1.5" fill="currentColor"></rect><rect x="30" y="10" width="3" height="12" rx="1.5" fill="currentColor"></rect><rect x="36" y="8" width="3" height="16" rx="1.5" fill="currentColor"></rect><rect x="42" width="3" height="32" rx="1.5" fill="currentColor"></rect><rect x="48" y="4" width="3" height="24" rx="1.5" fill="currentColor"></rect><rect x="54" width="3" height="32" rx="1.5" fill="currentColor"></rect><rect x="60" y="4" width="3" height="24" rx="1.5" fill="currentColor"></rect><rect x="66" y="8" width="3" height="16" rx="1.5" fill="currentColor"></rect><rect x="72" y="12" width="3" height="8" rx="1.5" fill="currentColor"></rect><rect x="78" y="14" width="3" height="4" rx="1.5" fill="currentColor"></rect><rect x="72" y="14" width="3" height="4" rx="1.5" fill="currentColor"></rect><rect x="78" y="12" width="3" height="8" rx="1.5" fill="currentColor"></rect><rect x="84" y="10" width="3" height="12" rx="1.5" fill="currentColor"></rect><rect x="90" y="6" width="3" height="20" rx="1.5" fill="currentColor"></rect><rect x="96" y="4" width="3" height="24" rx="1.5" fill="currentColor"></rect><rect x="102" y="4" width="3" height="24" rx="1.5" fill="currentColor"></rect><rect x="108" y="8" width="3" height="16" rx="1.5" fill="currentColor"></rect><rect x="114" y="10" width="3" height="12" rx="1.5" fill="currentColor"></rect><rect x="120" y="12" width="3" height="8" rx="1.5" fill="currentColor"></rect><rect x="126" y="12" width="3" height="8" rx="1.5" fill="currentColor"></rect><rect x="132" y="14" width="3" height="4" rx="1.5" fill="currentColor"></rect><rect x="138" y="14" width="3" height="4" rx="1.5" fill="currentColor"></rect><rect x="144" y="14" width="3" height="4" rx="1.5" fill="currentColor"></rect><rect x="150" y="14" width="3" height="4" rx="1.5" fill="currentColor"></rect></svg>